<svg width="651" height="474" viewBox="0 0 651 474" fill="none" xmlns="http://www.w3.org/2000/svg">
<mask id="mask0_1906_2014" style="mask-type:luminance" maskUnits="userSpaceOnUse" x="-1" y="-2" width="652" height="476">
<path d="M-0.00671394 -1.12452H651V473.88H-0.00671394V-1.12452Z" fill="white"/>
</mask>
<g mask="url(#mask0_1906_2014)">
<mask id="mask1_1906_2014" style="mask-type:luminance" maskUnits="userSpaceOnUse" x="0" y="0" width="651" height="474">
<path d="M651 0H0.000122072V473.556H651V0Z" fill="white"/>
</mask>
<g mask="url(#mask1_1906_2014)">
<path d="M0.000122072 473.797H651.007L648.749 470.228C633.993 446.86 614.523 421.431 598.92 405.138C592.274 398.199 577.274 385.046 570.228 379.992C548.168 364.158 517.537 350.422 480.816 339.896C454.81 332.438 425.664 325.623 382.5 316.899C357.511 311.845 342.043 307.911 328.196 303.086C298.059 292.584 281.079 280.75 263.02 257.677C248.725 239.417 239.184 222.087 218.725 177.267C214.215 167.382 208.512 154.895 206.057 149.523C194.963 125.236 180.065 99.8073 166.841 82.5719C151.508 62.5915 136.8 49.8505 113.262 36.1552C91.9277 23.7441 71.3735 15.2501 48.8935 9.5599C31.6078 5.18919 16.8788 2.11438 5.96765 0.60643L0.000122072 -0.224123V473.797Z" fill="#FAB95B"/>
<path d="M19.6937 453.855H670.7L668.442 450.285C653.686 426.918 634.217 401.489 618.613 385.196C611.967 378.257 596.967 365.104 589.921 360.05C567.862 344.216 537.23 330.48 500.51 319.954C474.503 312.496 445.357 305.681 402.194 296.957C377.205 291.903 361.737 287.969 347.889 283.144C317.753 272.642 300.773 260.808 282.714 237.735C268.419 219.475 258.878 202.145 238.418 157.324C233.909 147.44 228.206 134.953 225.751 129.581C214.657 105.294 199.758 79.8652 186.534 62.6298C171.202 42.6494 156.493 29.9084 132.955 16.2131C111.621 3.80197 91.0671 -4.69204 68.587 -10.3822C51.3014 -14.7529 36.5724 -17.8277 25.6612 -19.3357L19.6937 -20.1662V453.855Z" fill="#FAB95B"/>
</g>
</g>
</svg>
