<svg width="759" height="932" viewBox="0 0 759 932" fill="none" xmlns="http://www.w3.org/2000/svg">
<mask id="mask0_1917_2026" style="mask-type:luminance" maskUnits="userSpaceOnUse" x="111" y="449" width="648" height="484">
<path d="M111.995 449.316H758.453V932.33H111.995V449.316Z" fill="white"/>
</mask>
<g mask="url(#mask0_1917_2026)">
<mask id="mask1_1917_2026" style="mask-type:luminance" maskUnits="userSpaceOnUse" x="112" y="450" width="647" height="482">
<path d="M758.453 450.46H112.001V932H758.453V450.46Z" fill="white"/>
</mask>
<g mask="url(#mask1_1917_2026)">
<path d="M112.001 932.245H758.459L756.217 928.616C741.564 904.854 722.231 878.996 706.736 862.429C700.137 855.373 685.241 841.998 678.245 836.859C656.339 820.758 625.922 806.79 589.458 796.086C563.633 788.503 534.69 781.573 491.829 772.702C467.014 767.563 451.654 763.562 437.904 758.656C407.978 747.977 391.116 735.943 373.184 712.481C358.988 693.913 349.514 676.291 329.197 630.715C324.719 620.664 319.056 607.966 316.618 602.503C305.602 577.808 290.807 551.95 277.676 534.424C262.451 514.107 247.845 501.151 224.471 487.225C203.286 474.604 182.876 465.967 160.553 460.181C143.388 455.737 128.762 452.61 117.927 451.077L112.001 450.232V932.245Z" fill="#5D5D5D"/>
</g>
</g>
<mask id="mask2_1917_2026" style="mask-type:luminance" maskUnits="userSpaceOnUse" x="51" y="38" width="565" height="800">
<path d="M615.479 105.819L535.614 837.33L51.3026 770.454L131.168 38.9427L615.479 105.819Z" fill="white"/>
</mask>
<g mask="url(#mask2_1917_2026)">
<mask id="mask3_1917_2026" style="mask-type:luminance" maskUnits="userSpaceOnUse" x="51" y="38" width="564" height="800">
<path d="M534.467 837.172L614.332 105.668L131.498 38.9958L51.6336 770.499L534.467 837.172Z" fill="white"/>
</mask>
<g mask="url(#mask3_1917_2026)">
<path d="M131.253 38.9611L51.3871 770.472L55.3037 768.437C80.9392 755.146 109.255 736.85 127.781 721.61C135.671 715.12 150.923 700.116 156.94 692.911C175.79 670.352 193.554 637.867 208.791 598.087C219.585 569.915 230.109 538.124 244.299 490.852C252.518 463.484 258.427 446.657 265.045 431.776C279.45 399.392 293.599 381.978 319.34 364.935C339.711 351.443 358.551 343.161 406.76 326.483C417.391 322.807 430.823 318.157 436.601 316.155C462.724 307.108 490.479 293.947 509.675 281.515C531.927 267.099 546.722 252.366 563.574 227.845C578.845 205.62 590.027 183.72 598.587 159.261C605.164 140.453 610.106 124.336 612.982 112.288L614.561 105.699L131.253 38.9611Z" fill="#547792"/>
</g>
</g>
<mask id="mask4_1917_2026" style="mask-type:luminance" maskUnits="userSpaceOnUse" x="-1" y="-1" width="621" height="808">
<path d="M619.641 74.5277L539.774 806.056L-0.368874 731.469L79.4984 -0.0585195L619.641 74.5277Z" fill="white"/>
</mask>
<g mask="url(#mask4_1917_2026)">
<mask id="mask5_1917_2026" style="mask-type:luminance" maskUnits="userSpaceOnUse" x="0" y="0" width="619" height="806">
<path d="M538.495 805.879L618.362 74.3586L79.8665 -9.84049e-05L8.51989e-05 731.52L538.495 805.879Z" fill="white"/>
</mask>
<g mask="url(#mask5_1917_2026)">
<path d="M79.592 -0.0383418L-0.275236 731.49L4.06094 729.513C32.443 716.6 63.7477 698.716 84.1892 683.741C92.895 677.363 109.692 662.572 116.304 655.449C137.015 633.147 156.393 600.884 172.868 561.274C184.538 533.222 195.864 501.541 211.079 454.409C219.892 427.122 226.264 410.359 233.449 395.556C249.089 363.342 264.629 346.119 293.081 329.45C315.599 316.254 336.476 308.254 389.952 292.302C401.745 288.786 416.645 284.339 423.055 282.424C452.033 273.771 482.777 261.022 503.998 248.869C528.599 234.778 544.892 220.25 563.353 195.952C580.083 173.928 592.264 152.165 601.492 127.798C608.583 109.061 613.886 92.9925 616.94 80.9686L618.616 74.3934L79.592 -0.0383418Z" fill="#060644"/>
</g>
</g>
</svg>
